<svg version="1.1" xmlns="http://www.w3.org/2000/svg" xmlns:xlink="http://www.w3.org/1999/xlink" viewBox="0 0 226 226"><g fill="none" fill-rule="nonzero" stroke="none" stroke-width="1" stroke-linecap="butt" stroke-linejoin="miter" stroke-miterlimit="10" stroke-dasharray="" stroke-dashoffset="0" font-family="none" font-weight="none" font-size="none" text-anchor="none" style="mix-blend-mode: normal"><path d="M0,226v-226h226v226z" fill="none"></path><g fill="#000000"><path d="M113.85523,7.0694c-7.90674,-0.1747 -15.67777,2.0731 -22.27033,6.44177c-1.62648,1.07797 -2.07114,3.27037 -0.99316,4.89685c1.07797,1.62648 3.27037,2.07114 4.89685,0.99316c0.21188,-0.14125 0.4467,-0.23472 0.66211,-0.37244c-0.50698,0.60669 -0.79166,1.36827 -0.80695,2.15875c0,1.95026 1.58099,3.53125 3.53125,3.53125c1.95026,0 3.53125,-1.58099 3.53125,-3.53125c0,-1.95026 -1.58099,-3.53125 -3.53125,-3.53125c-0.15115,0.02055 -0.30088,0.05049 -0.4483,0.08966c9.52346,-5.02208 20.95774,-4.80594 30.28461,0.57245c-0.97555,0.6307 -1.57094,1.70758 -1.5863,2.86914c0,1.95026 1.58099,3.53125 3.53125,3.53125c1.57429,-0.01177 2.94524,-1.07743 3.34503,-2.60016c6.28078,5.52941 10.11686,13.32062 10.66962,21.67029l-4.58649,2.28979c-3.49605,1.74273 -7.65678,1.48498 -10.91101,-0.6759c-0.71394,-0.4792 -1.46327,-0.90343 -2.24152,-1.26904c-0.77662,-6.28341 -5.65574,-11.27347 -11.92011,-12.19115c-6.26436,-0.91768 -12.36976,2.46324 -14.91601,8.25987c-1.81009,-1.11621 -3.80461,-1.90093 -5.89002,-2.31738c1.43219,-1.31471 1.53231,-3.53977 0.22398,-4.97779c-1.30833,-1.43802 -3.53292,-1.54803 -4.97675,-0.2461c-1.44382,1.30192 -1.56372,3.52601 -0.26823,4.9756c-2.24361,0.18928 -4.4314,0.79999 -6.44867,1.80011l-0.87592,0.44141c0.76882,-4.09056 2.33929,-7.98862 4.62097,-11.46967c1.07797,-1.62648 0.63332,-3.81888 -0.99316,-4.89685c-1.62648,-1.07797 -3.81888,-0.63332 -4.89685,0.99316c-9.42185,14.23999 -8.41925,32.9674 2.46911,46.12006h-51.27899v-7.0625h24.71875c1.95026,0 3.53125,-1.58099 3.53125,-3.53125c0.00303,-6.11366 2.28225,-12.00717 6.39349,-16.53204c1.30842,-1.44746 1.19572,-3.68154 -0.25174,-4.98996c-1.44746,-1.30842 -3.68154,-1.19572 -4.98996,0.25174c-4.46872,4.92419 -7.27283,11.13088 -8.01428,17.73902h-24.91876c-1.95026,0 -3.53125,1.58099 -3.53125,3.53125v10.59375c-7.80102,0 -14.125,6.32398 -14.125,14.125v10.59375c0.00898,7.01231 4.16686,13.35469 10.59375,16.15961v103.90289c0,1.95026 1.58099,3.53125 3.53125,3.53125h176.5625c1.95026,0 3.53125,-1.58099 3.53125,-3.53125v-92.31598c0,-1.95026 -1.58099,-3.53125 -3.53125,-3.53125c-1.95026,0 -3.53125,1.58099 -3.53125,3.53125v88.78473h-7.0625v-88.28125c0,-1.95026 -1.58099,-3.53125 -3.53125,-3.53125h-42.375c-1.95026,0 -3.53125,1.58099 -3.53125,3.53125v7.0625c0,1.95026 1.58099,3.53125 3.53125,3.53125c1.95026,0 3.53125,-1.58099 3.53125,-3.53125v-3.53125h35.3125v14.125h-38.84375c-1.95026,0 -3.53125,1.58099 -3.53125,3.53125v67.09375h-113v-98.875c5.57936,-0.01586 10.82045,-2.67735 14.125,-7.17285c3.29391,4.50805 8.54178,7.17306 14.125,7.17306c5.58322,0 10.83109,-2.66501 14.125,-7.17306c3.29391,4.50805 8.54178,7.17306 14.125,7.17306c5.58322,0 10.83109,-2.66501 14.125,-7.17306c3.29391,4.50805 8.54178,7.17306 14.125,7.17306c5.58322,0 10.83109,-2.66501 14.125,-7.17306c3.29391,4.50805 8.54178,7.17306 14.125,7.17306c5.58322,0 10.83109,-2.66501 14.125,-7.17306c3.29391,4.50805 8.54178,7.17306 14.125,7.17306c5.58322,0 10.83109,-2.66501 14.125,-7.17306c4.51381,6.13378 12.4601,8.66939 19.69242,6.28373c7.23232,-2.38566 12.1104,-9.15154 12.08883,-16.76713v-10.59375c-0.02499,-6.42051 -4.37706,-12.01643 -10.59375,-13.62152v-11.09723c0,-1.95026 -1.58099,-3.53125 -3.53125,-3.53125h-28.44312c-1.46123,-13.59615 -11.52425,-24.69834 -24.91186,-27.48444c-6.32445,-13.14212 -19.48992,-21.62239 -34.07104,-21.94617zM113,21.1875c-1.95026,0 -3.53125,1.58099 -3.53125,3.53125c0,1.95026 1.58099,3.53125 3.53125,3.53125c1.95026,0 3.53125,-1.58099 3.53125,-3.53125c0,-1.95026 -1.58099,-3.53125 -3.53125,-3.53125zM134.1875,31.78125c-1.95026,0 -3.53125,1.58099 -3.53125,3.53125c0,1.95026 1.58099,3.53125 3.53125,3.53125c1.95026,0 3.53125,-1.58099 3.53125,-3.53125c0,-1.95026 -1.58099,-3.53125 -3.53125,-3.53125zM150.85748,37.31262c9.11234,3.88729 15.04858,12.81197 15.11127,22.71863c0,1.95026 1.58099,3.53125 3.53125,3.53125h28.25v7.0625h-54.81024c7.6978,-9.25778 10.62682,-21.58108 7.91772,-33.31238zM113,38.84375c3.90051,0 7.0625,3.16199 7.0625,7.0625c0,3.90051 -3.16199,7.0625 -7.0625,7.0625c-3.90051,0 -7.0625,-3.16199 -7.0625,-7.0625c0,-3.90051 3.16199,-7.0625 7.0625,-7.0625zM91.19177,44.60962c2.00704,0.07585 3.95434,0.70347 5.62793,1.8139c0.71194,0.47653 1.45895,0.89845 2.23462,1.26215c0.77662,6.28341 5.65574,11.27348 11.9201,12.19116c6.26436,0.91768 12.36977,-2.46324 14.91602,-8.25988c5.26326,3.24335 11.82915,3.53552 17.35968,0.77246l0.94488,-0.47589c-3.0138,15.75809 -17.30996,26.79154 -33.31742,25.71361c-16.00745,-1.07793 -28.69528,-13.92846 -29.56918,-29.94835c1.07902,-0.30108 2.12737,-0.70287 3.13122,-1.20007l1.46906,-0.73797c1.63856,-0.81337 3.45513,-1.2023 5.28308,-1.13111zM92.59875,52.97565c-1.22848,0.01274 -2.36216,0.66269 -2.99383,1.71641c-0.63167,1.05372 -0.67064,2.35992 -0.10291,3.44942c4.55259,8.76939 13.6173,14.26622 23.49799,14.24914c1.95026,0 3.53125,-1.58099 3.53125,-3.53125c0,-1.95026 -1.58099,-3.53125 -3.53125,-3.53125c-7.24846,0.01228 -13.89784,-4.02152 -17.23553,-10.45581c-0.615,-1.17686 -1.83791,-1.90954 -3.16571,-1.89667zM24.71875,77.6875h14.125v17.65625c0,5.85077 -4.74298,10.59375 -10.59375,10.59375c-5.85077,0 -10.59375,-4.74298 -10.59375,-10.59375v-10.59375c0,-3.90051 3.16199,-7.0625 7.0625,-7.0625zM45.90625,77.6875h21.1875v17.65625c0,5.85077 -4.74298,10.59375 -10.59375,10.59375c-5.85077,0 -10.59375,-4.74298 -10.59375,-10.59375zM74.15625,77.6875h16.59412c1.466,1.02802 3.00073,1.95439 4.59338,2.77258v14.88367c0,5.85077 -4.74298,10.59375 -10.59375,10.59375c-5.85077,0 -10.59375,-4.74298 -10.59375,-10.59375zM135.24963,77.6875h16.59412v17.65625c0,5.85077 -4.74298,10.59375 -10.59375,10.59375c-5.85077,0 -10.59375,-4.74298 -10.59375,-10.59375v-14.88367c1.59266,-0.8182 3.12738,-1.74456 4.59338,-2.77258zM158.90625,77.6875h21.1875v17.65625c0,5.85077 -4.74298,10.59375 -10.59375,10.59375c-5.85077,0 -10.59375,-4.74298 -10.59375,-10.59375zM187.15625,77.6875h14.125c3.90051,0 7.0625,3.16199 7.0625,7.0625v10.59375c0,5.85077 -4.74298,10.59375 -10.59375,10.59375c-5.85077,0 -10.59375,-4.74298 -10.59375,-10.59375zM102.40625,83.24646c6.92008,2.00582 14.26742,2.00582 21.1875,0v12.09729c0,5.85077 -4.74298,10.59375 -10.59375,10.59375c-5.85077,0 -10.59375,-4.74298 -10.59375,-10.59375zM38.84375,120.0625c-1.95026,0 -3.53125,1.58099 -3.53125,3.53125v24.71875c0,1.95026 1.58099,3.53125 3.53125,3.53125c1.95026,0 3.53125,-1.58099 3.53125,-3.53125v-21.1875h84.75v31.78125h-7.71082c1.10204,-2.92578 0.79151,-6.19649 -0.84143,-8.86261c0.95546,-1.59055 1.4697,-3.40703 1.48975,-5.26239c0,-5.85077 -4.74298,-10.59375 -10.59375,-10.59375c-5.85077,0 -10.59375,4.74298 -10.59375,10.59375c0.02005,1.85536 0.53428,3.67184 1.48975,5.26239c-1.63294,2.66612 -1.94347,5.93683 -0.84143,8.86261h-4.82788c1.10204,-2.92578 0.79151,-6.19649 -0.84143,-8.86261c0.95546,-1.59055 1.4697,-3.40703 1.48975,-5.26239c0,-5.85077 -4.74298,-10.59375 -10.59375,-10.59375c-5.85077,0 -10.59375,4.74298 -10.59375,10.59375c0.02005,1.85536 0.53428,3.67184 1.48975,5.26239c-1.63294,2.66612 -1.94347,5.93683 -0.84143,8.86261h-4.82788c1.10204,-2.92578 0.79151,-6.19649 -0.84143,-8.86261c0.95546,-1.59055 1.4697,-3.40703 1.48975,-5.26239c0,-5.85077 -4.74298,-10.59375 -10.59375,-10.59375c-5.85077,0 -10.59375,4.74298 -10.59375,10.59375c0.02005,1.85536 0.53428,3.67184 1.48975,5.26239c-1.63294,2.66612 -1.94347,5.93683 -0.84143,8.86261h-11.24207c-1.95026,0 -3.53125,1.58099 -3.53125,3.53125v38.84375c0,1.95026 1.58099,3.53125 3.53125,3.53125h91.8125c1.95026,0 3.53125,-1.58099 3.53125,-3.53125v-24.71875c0,-1.95026 -1.58099,-3.53125 -3.53125,-3.53125c-1.95026,0 -3.53125,1.58099 -3.53125,3.53125v21.1875h-7.71082c1.10204,-2.92578 0.79151,-6.19649 -0.84143,-8.86261c0.95546,-1.59055 1.4697,-3.40703 1.48975,-5.26239c0,-5.85077 -4.74298,-10.59375 -10.59375,-10.59375c-5.85077,0 -10.59375,4.74298 -10.59375,10.59375c0.02005,1.85536 0.53428,3.67184 1.48975,5.26239c-1.63294,2.66612 -1.94347,5.93683 -0.84143,8.86261h-4.82788c1.10204,-2.92578 0.79151,-6.19649 -0.84143,-8.86261c0.95546,-1.59055 1.4697,-3.40703 1.48975,-5.26239c0,-5.85077 -4.74298,-10.59375 -10.59375,-10.59375c-5.85077,0 -10.59375,4.74298 -10.59375,10.59375c0.02005,1.85536 0.53428,3.67184 1.48975,5.26239c-1.63294,2.66612 -1.94347,5.93683 -0.84143,8.86261h-4.82788c1.10204,-2.92578 0.79151,-6.19649 -0.84143,-8.86261c0.95546,-1.59055 1.4697,-3.40703 1.48975,-5.26239c0,-5.85077 -4.74298,-10.59375 -10.59375,-10.59375c-5.85077,0 -10.59375,4.74298 -10.59375,10.59375c0.02005,1.85536 0.53428,3.67184 1.48975,5.26239c-1.63294,2.66612 -1.94347,5.93683 -0.84143,8.86261h-7.71082v-31.78125h88.28125c1.95026,0 3.53125,-1.58099 3.53125,-3.53125v-38.84375c0,-1.95026 -1.58099,-3.53125 -3.53125,-3.53125zM60.03125,141.25c1.95026,0 3.53125,1.58099 3.53125,3.53125c-0.00639,0.21146 -0.03412,0.42173 -0.08277,0.62762c-2.22326,-0.83449 -4.67371,-0.83449 -6.89697,0c-0.04864,-0.20589 -0.07637,-0.41616 -0.08277,-0.62762c0,-1.95026 1.58099,-3.53125 3.53125,-3.53125zM84.75,141.25c1.95026,0 3.53125,1.58099 3.53125,3.53125c-0.00639,0.21146 -0.03412,0.42173 -0.08277,0.62762c-2.22326,-0.83449 -4.67371,-0.83449 -6.89697,0c-0.04864,-0.20589 -0.07637,-0.41616 -0.08277,-0.62762c0,-1.95026 1.58099,-3.53125 3.53125,-3.53125zM109.46875,141.25c1.95026,0 3.53125,1.58099 3.53125,3.53125c-0.00639,0.21146 -0.03412,0.42173 -0.08277,0.62762c-2.22326,-0.83449 -4.67371,-0.83449 -6.89697,0c-0.04864,-0.20589 -0.07637,-0.41616 -0.08277,-0.62762c0,-1.95026 1.58099,-3.53125 3.53125,-3.53125zM148.3125,148.3125h35.3125v14.125h-7.0625c-1.95026,0 -3.53125,1.58099 -3.53125,3.53125c0,1.95026 1.58099,3.53125 3.53125,3.53125h7.0625v10.59375h-35.3125zM60.13471,151.84375c1.95026,0.02857 3.50809,1.63272 3.47952,3.58298c-0.02857,1.95026 -1.63272,3.50809 -3.58298,3.47952c-1.95026,0 -3.53125,-1.58099 -3.53125,-3.53125c-0.00041,-0.95475 0.3858,-1.86898 1.07058,-2.53427c0.68478,-0.66529 1.60978,-1.02495 2.56412,-0.99698zM84.85346,151.84375c1.95026,0.02857 3.50809,1.63272 3.47952,3.58298c-0.02857,1.95026 -1.63272,3.50809 -3.58298,3.47952c-1.95026,0 -3.53125,-1.58099 -3.53125,-3.53125c-0.00041,-0.95475 0.3858,-1.86898 1.07058,-2.53427c0.68478,-0.66529 1.60978,-1.02495 2.56412,-0.99698zM109.57221,151.84375c1.95026,0.02857 3.50809,1.63272 3.47952,3.58298c-0.02857,1.95026 -1.63272,3.50809 -3.58298,3.47952c-1.95026,0 -3.53125,-1.58099 -3.53125,-3.53125c-0.00041,-0.95475 0.3858,-1.86898 1.07058,-2.53427c0.68478,-0.66529 1.60978,-1.02495 2.56412,-0.99698zM60.03125,180.09375c1.95026,0 3.53125,1.58099 3.53125,3.53125c-0.00639,0.21146 -0.03412,0.42173 -0.08277,0.62762c-2.22326,-0.83449 -4.67371,-0.83449 -6.89697,0c-0.04864,-0.20589 -0.07637,-0.41616 -0.08277,-0.62762c0,-1.95026 1.58099,-3.53125 3.53125,-3.53125zM84.75,180.09375c1.95026,0 3.53125,1.58099 3.53125,3.53125c-0.00639,0.21146 -0.03412,0.42173 -0.08277,0.62762c-2.22326,-0.83449 -4.67371,-0.83449 -6.89697,0c-0.04864,-0.20589 -0.07637,-0.41616 -0.08277,-0.62762c0,-1.95026 1.58099,-3.53125 3.53125,-3.53125zM109.46875,180.09375c1.95026,0 3.53125,1.58099 3.53125,3.53125c-0.00639,0.21146 -0.03412,0.42173 -0.08277,0.62762c-2.22326,-0.83449 -4.67371,-0.83449 -6.89697,0c-0.04864,-0.20589 -0.07637,-0.41616 -0.08277,-0.62762c0,-1.95026 1.58099,-3.53125 3.53125,-3.53125zM148.3125,187.15625h35.3125v24.71875h-14.125v-14.125c0,-1.95026 -1.58099,-3.53125 -3.53125,-3.53125c-1.95026,0 -3.53125,1.58099 -3.53125,3.53125v14.125h-14.125zM60.13471,190.6875c1.95026,0.02857 3.50809,1.63272 3.47952,3.58298c-0.02857,1.95026 -1.63272,3.50809 -3.58298,3.47952c-1.95026,0 -3.53125,-1.58099 -3.53125,-3.53125c-0.00041,-0.95475 0.3858,-1.86898 1.07058,-2.53427c0.68478,-0.66529 1.60978,-1.02495 2.56412,-0.99698zM84.85346,190.6875c1.95026,0.02857 3.50809,1.63272 3.47952,3.58298c-0.02857,1.95026 -1.63272,3.50809 -3.58298,3.47952c-1.95026,0 -3.53125,-1.58099 -3.53125,-3.53125c-0.00041,-0.95475 0.3858,-1.86898 1.07058,-2.53427c0.68478,-0.66529 1.60978,-1.02495 2.56412,-0.99698zM109.57221,190.6875c1.95026,0.02857 3.50809,1.63272 3.47952,3.58298c-0.02857,1.95026 -1.63272,3.50809 -3.58298,3.47952c-1.95026,0 -3.53125,-1.58099 -3.53125,-3.53125c-0.00041,-0.95475 0.3858,-1.86898 1.07058,-2.53427c0.68478,-0.66529 1.60978,-1.02495 2.56412,-0.99698z"></path></g></g></svg>