<svg version="1.1" xmlns="http://www.w3.org/2000/svg" xmlns:xlink="http://www.w3.org/1999/xlink" viewBox="0 0 172 172"><g fill="none" fill-rule="nonzero" stroke="none" stroke-width="1" stroke-linecap="butt" stroke-linejoin="miter" stroke-miterlimit="10" stroke-dasharray="" stroke-dashoffset="0" font-family="none" font-weight="none" font-size="none" text-anchor="none" style="mix-blend-mode: normal"><path d="M0,172v-172h172v172z" fill="none"></path><g fill="#000000"><path d="M93.98376,5.375c-0.14275,0.00442 -0.28493,0.02022 -0.42517,0.04724l-37.625,7.17017c-0.10383,0.0299 -0.20554,0.06673 -0.30444,0.11023c-0.13134,0.03898 -0.25946,0.08812 -0.38318,0.14697c-0.17376,0.09028 -0.33592,0.20132 -0.48291,0.33069c-0.1038,0.07884 -0.20202,0.16478 -0.29395,0.2572c-0.13942,0.16286 -0.2576,0.34276 -0.35168,0.5354c-0.06218,0.0925 -0.11829,0.18893 -0.16797,0.2887c-0.12613,0.30852 -0.19377,0.63781 -0.19946,0.97107v8.95483h-21.5v-0.89233c0,-2.96853 2.40647,-5.375 5.375,-5.375h5.375c1.48427,0 2.6875,-1.20323 2.6875,-2.6875c0,-1.48427 -1.20323,-2.6875 -2.6875,-2.6875h-5.375c-5.93706,0 -10.75,4.81294 -10.75,10.75v12.53467c0,5.93706 4.81294,10.75 10.75,10.75h0.60889l1.39099,7.65308c0.233,1.27558 1.34357,2.2029 2.64026,2.20459c0.16214,0.00028 0.3239,-0.01554 0.48291,-0.04724c1.45279,-0.27342 2.412,-1.66884 2.14685,-3.12317l-1.21252,-6.68726h7.97327l1.39099,7.65308c0.23335,1.27753 1.34684,2.20543 2.64551,2.20459c0.16038,-0.00006 0.32037,-0.01589 0.47766,-0.04724c1.45493,-0.27093 2.41702,-1.66714 2.1521,-3.12317l-1.15479,-6.50354l36.39148,6.92871c0.16574,0.0353 0.33448,0.05463 0.50391,0.05774c1.48427,0 2.6875,-1.20323 2.6875,-2.6875v-8.3302c6.26519,-1.26964 10.76865,-6.77726 10.76865,-13.1698c0,-6.39254 -4.50346,-11.90016 -10.76865,-13.1698v-8.3302c0.00031,-0.72662 -0.29362,-1.42241 -0.81478,-1.92874c-0.52116,-0.50633 -1.22514,-0.78005 -1.95145,-0.75876zM120.98999,8.052c-0.30682,-0.00459 -0.61217,0.04335 -0.90283,0.14172l-8.0625,2.6875c-1.26148,0.40922 -2.03586,1.67746 -1.82357,2.98655c0.21229,1.30909 1.34776,2.26762 2.67391,2.25723c0.28923,-0.00118 0.57637,-0.04903 0.85034,-0.14172l8.0625,-2.6875c1.244,-0.41306 2.00932,-1.66244 1.81216,-2.95831c-0.19717,-1.29587 -1.29945,-2.26109 -2.61001,-2.28547zM91.375,11.3064v7.5061v29.0061l-32.25,-6.14661v-15.09619l24.50244,-2.92371c1.47557,-0.17394 2.53075,-1.51113 2.35681,-2.9867c-0.17394,-1.47557 -1.51113,-2.53075 -2.9867,-2.35681l-23.87256,2.85022v-3.70581zM96.75,21.96191c3.21801,1.14285 5.36984,4.18567 5.375,7.60059c-0.00516,3.41492 -2.15699,6.45774 -5.375,7.60059zM115.5625,26.875c-1.48427,0 -2.6875,1.20323 -2.6875,2.6875c0,1.48427 1.20323,2.6875 2.6875,2.6875h8.0625c1.48427,0 2.6875,-1.20323 2.6875,-2.6875c0,-1.48427 -1.20323,-2.6875 -2.6875,-2.6875zM32.25,29.5625h21.5v11.64233h-16.125c-2.96853,0 -5.375,-2.40647 -5.375,-5.375zM112.93274,42.9895c-1.33157,-0.03013 -2.4848,0.91848 -2.71206,2.23086c-0.22727,1.31237 0.53983,2.59353 1.80398,3.01292l8.0625,2.6875c0.9218,0.34354 1.95761,0.15664 2.70121,-0.48742c0.7436,-0.64405 1.07644,-1.64257 0.86799,-2.60398c-0.20845,-0.9614 -0.92495,-1.73241 -1.86852,-2.01066l-8.0625,-2.6875c-0.2556,-0.08673 -0.52279,-0.1345 -0.7926,-0.14172zM13.4375,61.8125c-1.42871,-0.00214 -2.60937,1.11395 -2.6875,2.54053l-5.375,99.4375c-0.04041,0.73788 0.22479,1.45983 0.73324,1.99609c0.50845,0.53626 1.21528,0.83949 1.95426,0.83838h75.25c1.48427,0 2.6875,-1.20323 2.6875,-2.6875c0,-1.48427 -1.20323,-2.6875 -2.6875,-2.6875h-58.97278l2.53528,-45.53528c0.08407,-1.48427 -1.05101,-2.75565 -2.53528,-2.83972c-1.48427,-0.08407 -2.75565,1.05101 -2.83972,2.53528l-2.54053,45.83972h-8.0625l5.0863,-94.0625h80.90845l0.88184,16.27197c0.08117,1.48427 1.35021,2.6217 2.83447,2.54053c1.48427,-0.08117 2.6217,-1.35021 2.54053,-2.83447l-1.01831,-18.8125c-0.07824,-1.42861 -1.26201,-2.54546 -2.69275,-2.54053zM123.625,61.8125c-7.41764,0.00889 -13.42861,6.01986 -13.4375,13.4375v16.125h-10.94946c-1.40974,-0.00389 -2.58288,1.08218 -2.6875,2.48804l-5.17554,69.875c-0.05557,0.74665 0.20285,1.48264 0.713,2.03065c0.51015,0.54802 1.22579,0.85838 1.9745,0.85631h37.625c1.48427,0 2.6875,-1.20323 2.6875,-2.6875c0,-1.48427 -1.20323,-2.6875 -2.6875,-2.6875h-34.73279l4.77661,-64.5h54.53735l4.77661,64.5h-13.23279c-1.48427,0 -2.6875,1.20323 -2.6875,2.6875c0,1.48427 1.20323,2.6875 2.6875,2.6875h16.125c0.74871,0.00207 1.46435,-0.30829 1.9745,-0.85631c0.51015,-0.54802 0.76857,-1.284 0.713,-2.03065l-5.18604,-69.875c-0.10462,-1.40585 -1.27776,-2.49192 -2.6875,-2.48804h-10.93896v-16.125c-0.00889,-7.41764 -6.01986,-13.42861 -13.4375,-13.4375zM123.625,67.1875h10.75c4.4528,0 8.0625,3.6097 8.0625,8.0625v16.125h-26.875v-16.125c0,-4.4528 3.6097,-8.0625 8.0625,-8.0625zM37.625,72.5625c-4.4528,0 -8.0625,3.6097 -8.0625,8.0625c0,4.4528 3.6097,8.0625 8.0625,8.0625h21.5c1.48427,0 2.6875,-1.20323 2.6875,-2.6875c0,-1.48427 -1.20323,-2.6875 -2.6875,-2.6875h-21.5c-1.48427,0 -2.6875,-1.20323 -2.6875,-2.6875c0,-1.48427 1.20323,-2.6875 2.6875,-2.6875h37.625c1.48427,0 2.6875,1.20323 2.6875,2.6875c0,1.48427 -1.20323,2.6875 -2.6875,2.6875h-5.375c-1.48427,0 -2.6875,1.20323 -2.6875,2.6875c0,1.48427 1.20323,2.6875 2.6875,2.6875h5.375c4.4528,0 8.0625,-3.6097 8.0625,-8.0625c0,-4.4528 -3.6097,-8.0625 -8.0625,-8.0625zM40.3125,96.75c-1.48427,0 -2.6875,1.20323 -2.6875,2.6875v48.375c0,1.48427 1.20323,2.6875 2.6875,2.6875h16.125c1.48427,0 2.6875,-1.20323 2.6875,-2.6875v-13.4375h2.6875c10.38986,0 18.8125,-8.42264 18.8125,-18.8125c0,-10.38986 -8.42264,-18.8125 -18.8125,-18.8125zM43,102.125h18.8125c7.42133,0 13.4375,6.01617 13.4375,13.4375c0,7.42133 -6.01617,13.4375 -13.4375,13.4375h-5.375c-1.48427,0 -2.6875,1.20323 -2.6875,2.6875v13.4375h-10.75zM110.1875,102.125c-1.48427,0 -2.6875,1.20323 -2.6875,2.6875c0,1.48427 1.20323,2.6875 2.6875,2.6875h8.0625c1.48427,0 2.6875,-1.20323 2.6875,-2.6875c0,-1.48427 -1.20323,-2.6875 -2.6875,-2.6875zM139.75,102.125c-1.48427,0 -2.6875,1.20323 -2.6875,2.6875c0,1.48427 1.20323,2.6875 2.6875,2.6875h8.0625c1.48427,0 2.6875,-1.20323 2.6875,-2.6875c0,-1.48427 -1.20323,-2.6875 -2.6875,-2.6875zM56.4375,107.5c-1.48427,0 -2.6875,1.20323 -2.6875,2.6875v10.75c0,1.48427 1.20323,2.6875 2.6875,2.6875h5.375c4.4528,0 8.0625,-3.6097 8.0625,-8.0625c0,-4.4528 -3.6097,-8.0625 -8.0625,-8.0625zM59.125,112.875h2.6875c1.48427,0 2.6875,1.20323 2.6875,2.6875c0,1.48427 -1.20323,2.6875 -2.6875,2.6875h-2.6875zM122.28125,115.5625c-1.48427,0 -2.6875,1.20323 -2.6875,2.6875v24.1875c0,1.48427 1.20323,2.6875 2.6875,2.6875c1.48427,0 2.6875,-1.20323 2.6875,-2.6875v-8.0625h4.03125c5.19493,0 9.40625,-4.21132 9.40625,-9.40625c0,-5.19493 -4.21132,-9.40625 -9.40625,-9.40625zM124.96875,120.9375h4.03125c2.2264,0 4.03125,1.80485 4.03125,4.03125c0,2.2264 -1.80485,4.03125 -4.03125,4.03125h-4.03125zM115.5625,150.5c-1.48427,0 -2.6875,1.20323 -2.6875,2.6875c0,1.48427 1.20323,2.6875 2.6875,2.6875h24.1875c1.48427,0 2.6875,-1.20323 2.6875,-2.6875c0,-1.48427 -1.20323,-2.6875 -2.6875,-2.6875z"></path></g></g></svg>