<svg version="1.1" xmlns="http://www.w3.org/2000/svg" xmlns:xlink="http://www.w3.org/1999/xlink" viewBox="0 0 226 226"><g fill="none" fill-rule="nonzero" stroke="none" stroke-width="1" stroke-linecap="butt" stroke-linejoin="miter" stroke-miterlimit="10" stroke-dasharray="" stroke-dashoffset="0" font-family="none" font-weight="none" font-size="none" text-anchor="none" style="mix-blend-mode: normal"><path d="M0,226v-226h226v226z" fill="none"></path><g fill="#000000"><path d="M111.04126,7.09009c-36.27703,1.05953 -65.13555,30.77367 -65.13501,67.06616v67.44549c-8.21717,1.68709 -14.11779,8.91594 -14.125,17.30451v38.84375h-7.0625c-5.85077,0 -10.59375,4.74298 -10.59375,10.59375c0,5.85077 4.74298,10.59375 10.59375,10.59375h176.5625c5.85077,0 10.59375,-4.74298 10.59375,-10.59375c0,-5.85077 -4.74298,-10.59375 -10.59375,-10.59375h-7.0625v-38.84375c-0.00584,-8.38905 -5.90708,-15.61865 -14.125,-17.30451v-67.44549c0.00027,-18.13421 -7.34003,-35.49628 -20.34859,-48.13064c-13.00856,-12.63436 -30.57742,-19.46493 -48.7039,-18.93552zM114.75183,14.15259c32.45755,0.94758 58.27832,27.53228 58.27942,60.00366v67.09375h-60.03125c-1.95026,0 -3.53125,1.58099 -3.53125,3.53125c0,1.95026 1.58099,3.53125 3.53125,3.53125h63.5625c5.85077,0 10.59375,4.74298 10.59375,10.59375v38.84375h-148.3125v-38.84375c0,-5.85077 4.74298,-10.59375 10.59375,-10.59375h38.84375c1.95026,0 3.53125,-1.58099 3.53125,-3.53125c0,-1.95026 -1.58099,-3.53125 -3.53125,-3.53125h-35.3125v-67.09375c0.00055,-16.22472 6.56843,-31.75832 18.20742,-43.0621c11.63899,-11.30377 27.35785,-17.41503 43.57566,-16.94156zM111.24817,21.21509c-8.20314,0.27198 -16.23085,2.44654 -23.44971,6.35211c-1.716,0.92942 -2.35364,3.07395 -1.42422,4.78995c0.92942,1.716 3.07395,2.35364 4.78995,1.42422c5.6624,-3.03011 11.89903,-4.83484 18.30457,-5.29687v6.828c0,1.95026 1.58099,3.53125 3.53125,3.53125c1.95026,0 3.53125,-1.58099 3.53125,-3.53125v-6.86938c22.52736,1.76483 40.42348,19.6551 42.19568,42.18188h-6.88318c-1.95026,0 -3.53125,1.58099 -3.53125,3.53125c0,1.95026 1.58099,3.53125 3.53125,3.53125h6.8418c-0.4635,6.40527 -2.26813,12.64161 -5.29687,18.30457c-0.88178,1.70813 -0.23526,3.80781 1.45461,4.7241c1.68987,0.91629 3.80224,0.31255 4.75266,-1.35837c9.02903,-16.69032 8.43996,-36.93548 -1.54424,-53.07257c-9.9842,-16.13709 -27.83797,-25.70039 -46.80354,-25.07013zM137.91876,45.66486c-0.91973,0.0128 -1.79817,0.38397 -2.44843,1.03454l-17.93903,17.94593c-2.8675,-1.36137 -6.19512,-1.36137 -9.06262,0l-10.44892,-10.44892c-0.88752,-0.91385 -2.19845,-1.27884 -3.43053,-0.95513c-1.23208,0.32371 -2.1943,1.28593 -2.51801,2.51801c-0.32371,1.23208 0.04128,2.54301 0.95513,3.43052l10.44202,10.44202c-2.20088,4.64426 -0.74448,10.19845 3.45214,13.16517c4.19662,2.96672 9.91852,2.4871 13.56269,-1.13685c3.18986,-3.1562 4.01376,-7.99419 2.0484,-12.02832l17.93213,-17.93903c1.38059,-1.37707 1.38368,-3.61253 0.0069,-4.99341c-0.67559,-0.67596 -1.59631,-1.04922 -2.55188,-1.03454zM69.4801,47.05804c-1.29568,0.01994 -2.47637,0.74794 -3.07605,1.89667c-11.16786,20.60995 -7.46094,46.10928 9.11292,62.68632c16.57386,16.57704 42.07247,20.28886 62.68457,9.12496c1.64768,-0.96146 2.23424,-3.0575 1.32493,-4.73453c-0.90932,-1.67702 -2.98593,-2.32903 -4.69065,-1.47275c-5.6626,3.02962 -11.89912,4.83431 -18.30457,5.29688v-6.85559c0,-1.95026 -1.58099,-3.53125 -3.53125,-3.53125c-1.95026,0 -3.53125,1.58099 -3.53125,3.53125v6.88318c-22.53548,-1.75855 -40.43712,-19.6602 -42.19568,-42.19568h6.88318c1.95026,0 3.53125,-1.58099 3.53125,-3.53125c0,-1.95026 -1.58099,-3.53125 -3.53125,-3.53125h-6.8418c0.46485,-6.40503 2.26941,-12.64109 5.29688,-18.30457c0.61989,-1.10176 0.60352,-2.45084 -0.04291,-3.53724c-0.64643,-1.0864 -1.82429,-1.74436 -3.08832,-1.72515zM113.05518,70.63879c0.91733,0.01459 1.79298,0.38563 2.44153,1.03455c1.37409,1.37818 1.37409,3.60833 0,4.98651v0.0069c-1.37898,1.37868 -3.61443,1.37868 -4.99341,0c-1.37868,-1.37898 -1.37868,-3.61443 0,-4.99341c0.67559,-0.67596 1.59631,-1.04922 2.55188,-1.03455zM62.46588,108.97906c-1.35368,-0.02864 -2.60456,0.71926 -3.22005,1.92526c-0.61549,1.20601 -0.48721,2.65776 0.33022,3.73715c6.0842,8.01671 13.88114,14.57424 22.82208,19.19428c1.73504,0.89133 3.86414,0.20736 4.75546,-1.52768c0.89133,-1.73504 0.20736,-3.86414 -1.52768,-4.75546v-0.0069c-7.99973,-4.13152 -14.9766,-9.99625 -20.42194,-17.16657c-0.65089,-0.86048 -1.65944,-1.37618 -2.7381,-1.40008zM163.67895,108.97906c-1.12958,-0.02119 -2.20115,0.49921 -2.88293,1.40008c-5.44429,7.17131 -12.42141,13.03624 -20.42194,17.16657c-1.73504,0.89133 -2.41901,3.02042 -1.52768,4.75546c0.89133,1.73504 3.02042,2.41901 4.75546,1.52768c8.93901,-4.61686 16.73566,-11.16944 22.82208,-19.18048c0.80482,-1.05881 0.94671,-2.47992 0.36713,-3.67696c-0.57959,-1.19703 -1.7824,-1.96706 -3.11213,-1.99235zM60.03125,155.375c-5.85077,0 -10.59375,4.74298 -10.59375,10.59375v14.125c0,5.85077 4.74298,10.59375 10.59375,10.59375h7.0625c5.85077,0 10.59375,-4.74298 10.59375,-10.59375v-14.125c0,-5.85077 -4.74298,-10.59375 -10.59375,-10.59375zM91.8125,155.375c-3.90051,0 -7.0625,3.16199 -7.0625,7.0625v24.71875c0,1.95026 1.58099,3.53125 3.53125,3.53125c1.95026,0 3.53125,-1.58099 3.53125,-3.53125v-7.0625h7.0625c5.85077,0 10.59375,-4.74298 10.59375,-10.59375v-3.53125c0,-5.85077 -4.74298,-10.59375 -10.59375,-10.59375zM123.59375,155.375c-3.90051,0 -7.0625,3.16199 -7.0625,7.0625v21.1875c0,3.90051 3.16199,7.0625 7.0625,7.0625h14.125c1.95026,0 3.53125,-1.58099 3.53125,-3.53125c0,-1.95026 -1.58099,-3.53125 -3.53125,-3.53125h-14.125v-7.0625h14.125c1.95026,0 3.53125,-1.58099 3.53125,-3.53125c0,-1.95026 -1.58099,-3.53125 -3.53125,-3.53125h-14.125v-7.0625h14.125c1.95026,0 3.53125,-1.58099 3.53125,-3.53125c0,-1.95026 -1.58099,-3.53125 -3.53125,-3.53125zM151.84375,155.375c-0.13276,0.01868 -0.2641,0.04633 -0.39313,0.08277c-0.23904,0.02272 -0.47492,0.07128 -0.70349,0.14483c-0.22638,0.08046 -0.44368,0.18448 -0.64832,0.31037c-0.12345,0.04897 -0.2433,0.10659 -0.35864,0.17242c-0.06709,0.04944 -0.09507,0.12635 -0.15863,0.17932c-0.18295,0.16287 -0.3472,0.34562 -0.48969,0.54486c-0.13533,0.16683 -0.25319,0.34709 -0.35174,0.53796c-0.17572,0.42376 -0.29402,0.86911 -0.35175,1.32422c0,0.08122 -0.04828,0.15328 -0.04828,0.2345v28.25c0,1.95026 1.58099,3.53125 3.53125,3.53125c1.95026,0 3.53125,-1.58099 3.53125,-3.53125v-17.65625l14.82849,19.77362c0.04591,0.0565 0.11609,0.08144 0.16553,0.13794c0.2463,0.27802 0.53493,0.51543 0.85523,0.70349c0.11323,0.0819 0.23064,0.15787 0.35174,0.2276c0.44574,0.21578 0.93259,0.33337 1.42767,0.34485c0.42558,-0.00556 0.84647,-0.08973 1.24145,-0.24829c0.14039,-0.06183 0.27636,-0.13327 0.40692,-0.21381c0.16182,-0.06932 0.31854,-0.14998 0.46899,-0.2414c0.06709,-0.04944 0.09507,-0.12635 0.15863,-0.17932c0.18238,-0.16598 0.34654,-0.35095 0.48969,-0.55176c0.13388,-0.16543 0.25166,-0.34326 0.35174,-0.53107c0.09163,-0.19694 0.16326,-0.40258 0.21381,-0.61383c0.07297,-0.23108 0.12151,-0.46918 0.14484,-0.71039c0,-0.08475 0.04828,-0.14975 0.04828,-0.2345v-28.2569c0,-1.94757 -1.57679,-3.52745 -3.52435,-3.53125c-1.95026,0 -3.53125,1.58099 -3.53125,3.53125v17.65625l-14.82849,-19.77362c-0.04944,-0.06709 -0.13325,-0.0986 -0.18622,-0.15863c-0.6293,-0.68109 -1.48482,-1.11007 -2.40704,-1.20697c-0.08122,0 -0.14975,-0.04828 -0.2345,-0.04828zM60.03125,162.4375h7.0625c1.95026,0 3.53125,1.58099 3.53125,3.53125v14.125c0,1.95026 -1.58099,3.53125 -3.53125,3.53125h-7.0625c-1.95026,0 -3.53125,-1.58099 -3.53125,-3.53125v-14.125c0,-1.95026 1.58099,-3.53125 3.53125,-3.53125zM91.8125,162.4375h7.0625c1.95026,0 3.53125,1.58099 3.53125,3.53125v3.53125c0,1.95026 -1.58099,3.53125 -3.53125,3.53125h-7.0625zM24.57391,204.8125c0.04827,-0.00099 0.09656,-0.00099 0.14484,0h176.5625c1.95026,0 3.53125,1.58099 3.53125,3.53125c0,1.95026 -1.58099,3.53125 -3.53125,3.53125h-176.5625c-1.95026,0.04 -3.56367,-1.50858 -3.60367,-3.45883c-0.04,-1.95026 1.50858,-3.56367 3.45883,-3.60367z"></path></g></g></svg>