<?xml version="1.0" standalone="no"?>
<svg xmlns:xlink="http://www.w3.org/1999/xlink" id="wave" style="transform:rotate(180deg); transition: 0.3s" viewBox="0 0 1440 140" version="1.1" xmlns="http://www.w3.org/2000/svg"><defs><linearGradient id="sw-gradient-0" x1="0" x2="0" y1="1" y2="0"><stop stop-color="rgba(245, 245, 245, 1)" offset="0%"/><stop stop-color="rgba(245, 245, 245, 1)" offset="100%"/></linearGradient></defs><path style="transform:translate(0, 0px); opacity:1" fill="url(#sw-gradient-0)" d="M0,42L40,51.3C80,61,160,79,240,88.7C320,98,400,98,480,102.7C560,107,640,117,720,109.7C800,103,880,79,960,70C1040,61,1120,65,1200,77C1280,89,1360,107,1440,95.7C1520,84,1600,42,1680,23.3C1760,5,1840,9,1920,18.7C2000,28,2080,42,2160,44.3C2240,47,2320,37,2400,35C2480,33,2560,37,2640,44.3C2720,51,2800,61,2880,56C2960,51,3040,33,3120,32.7C3200,33,3280,51,3360,56C3440,61,3520,51,3600,46.7C3680,42,3760,42,3840,53.7C3920,65,4000,89,4080,81.7C4160,75,4240,37,4320,28C4400,19,4480,37,4560,42C4640,47,4720,37,4800,28C4880,19,4960,9,5040,16.3C5120,23,5200,47,5280,49C5360,51,5440,33,5520,39.7C5600,47,5680,79,5720,95.7L5760,112L5760,140L5720,140C5680,140,5600,140,5520,140C5440,140,5360,140,5280,140C5200,140,5120,140,5040,140C4960,140,4880,140,4800,140C4720,140,4640,140,4560,140C4480,140,4400,140,4320,140C4240,140,4160,140,4080,140C4000,140,3920,140,3840,140C3760,140,3680,140,3600,140C3520,140,3440,140,3360,140C3280,140,3200,140,3120,140C3040,140,2960,140,2880,140C2800,140,2720,140,2640,140C2560,140,2480,140,2400,140C2320,140,2240,140,2160,140C2080,140,2000,140,1920,140C1840,140,1760,140,1680,140C1600,140,1520,140,1440,140C1360,140,1280,140,1200,140C1120,140,1040,140,960,140C880,140,800,140,720,140C640,140,560,140,480,140C400,140,320,140,240,140C160,140,80,140,40,140L0,140Z"/></svg>