<?xml version="1.0" standalone="no"?>
<svg xmlns:xlink="http://www.w3.org/1999/xlink" id="wave" style="transform:rotate(180deg); transition: 0.3s" viewBox="0 0 1440 140" version="1.1" xmlns="http://www.w3.org/2000/svg"><defs><linearGradient id="sw-gradient-0" x1="0" x2="0" y1="1" y2="0"><stop stop-color="rgba(245, 245, 245, 1)" offset="0%"/><stop stop-color="rgba(245, 245, 245, 1)" offset="100%"/></linearGradient></defs><path style="transform:translate(0, 0px); opacity:1" fill="url(#sw-gradient-0)" d="M0,28L24,35C48,42,96,56,144,70C192,84,240,98,288,105C336,112,384,112,432,112C480,112,528,112,576,95.7C624,79,672,47,720,42C768,37,816,61,864,79.3C912,98,960,112,1008,114.3C1056,117,1104,107,1152,91C1200,75,1248,51,1296,56C1344,61,1392,93,1440,91C1488,89,1536,51,1584,44.3C1632,37,1680,61,1728,74.7C1776,89,1824,93,1872,91C1920,89,1968,79,2016,70C2064,61,2112,51,2160,51.3C2208,51,2256,61,2304,56C2352,51,2400,33,2448,30.3C2496,28,2544,42,2592,58.3C2640,75,2688,93,2736,102.7C2784,112,2832,112,2880,95.7C2928,79,2976,47,3024,28C3072,9,3120,5,3168,11.7C3216,19,3264,37,3312,39.7C3360,42,3408,28,3432,21L3456,14L3456,140L3432,140C3408,140,3360,140,3312,140C3264,140,3216,140,3168,140C3120,140,3072,140,3024,140C2976,140,2928,140,2880,140C2832,140,2784,140,2736,140C2688,140,2640,140,2592,140C2544,140,2496,140,2448,140C2400,140,2352,140,2304,140C2256,140,2208,140,2160,140C2112,140,2064,140,2016,140C1968,140,1920,140,1872,140C1824,140,1776,140,1728,140C1680,140,1632,140,1584,140C1536,140,1488,140,1440,140C1392,140,1344,140,1296,140C1248,140,1200,140,1152,140C1104,140,1056,140,1008,140C960,140,912,140,864,140C816,140,768,140,720,140C672,140,624,140,576,140C528,140,480,140,432,140C384,140,336,140,288,140C240,140,192,140,144,140C96,140,48,140,24,140L0,140Z"/></svg>