<?xml version="1.0" standalone="no"?>
<svg xmlns:xlink="http://www.w3.org/1999/xlink" id="wave" style="transform:rotate(180deg); transition: 0.3s" viewBox="0 0 1440 210" version="1.1" xmlns="http://www.w3.org/2000/svg"><defs><linearGradient id="sw-gradient-0" x1="0" x2="0" y1="1" y2="0"><stop stop-color="rgba(255, 207, 131, 1)" offset="0%"/><stop stop-color="rgba(255, 179, 11, 1)" offset="100%"/></linearGradient></defs><path style="transform:translate(0, 0px); opacity:1" fill="url(#sw-gradient-0)" d="M0,105L34.3,105C68.6,105,137,105,206,115.5C274.3,126,343,147,411,161C480,175,549,182,617,161C685.7,140,754,91,823,80.5C891.4,70,960,98,1029,101.5C1097.1,105,1166,84,1234,87.5C1302.9,91,1371,119,1440,108.5C1508.6,98,1577,49,1646,49C1714.3,49,1783,98,1851,115.5C1920,133,1989,119,2057,112C2125.7,105,2194,105,2263,105C2331.4,105,2400,105,2469,98C2537.1,91,2606,77,2674,73.5C2742.9,70,2811,77,2880,73.5C2948.6,70,3017,56,3086,49C3154.3,42,3223,42,3291,52.5C3360,63,3429,84,3497,80.5C3565.7,77,3634,49,3703,35C3771.4,21,3840,21,3909,31.5C3977.1,42,4046,63,4114,70C4182.9,77,4251,70,4320,77C4388.6,84,4457,105,4526,126C4594.3,147,4663,168,4731,150.5C4800,133,4869,77,4903,49L4937.1,21L4937.1,210L4902.9,210C4868.6,210,4800,210,4731,210C4662.9,210,4594,210,4526,210C4457.1,210,4389,210,4320,210C4251.4,210,4183,210,4114,210C4045.7,210,3977,210,3909,210C3840,210,3771,210,3703,210C3634.3,210,3566,210,3497,210C3428.6,210,3360,210,3291,210C3222.9,210,3154,210,3086,210C3017.1,210,2949,210,2880,210C2811.4,210,2743,210,2674,210C2605.7,210,2537,210,2469,210C2400,210,2331,210,2263,210C2194.3,210,2126,210,2057,210C1988.6,210,1920,210,1851,210C1782.9,210,1714,210,1646,210C1577.1,210,1509,210,1440,210C1371.4,210,1303,210,1234,210C1165.7,210,1097,210,1029,210C960,210,891,210,823,210C754.3,210,686,210,617,210C548.6,210,480,210,411,210C342.9,210,274,210,206,210C137.1,210,69,210,34,210L0,210Z"/></svg>